<?xml version="1.0" encoding="utf-8"?>
<!-- Svg Vector Icons : http://www.sfont.cn -->
<!DOCTYPE svg PUBLIC "-//W3C//DTD SVG 1.1//EN" "http://www.w3.org/Graphics/SVG/1.1/DTD/svg11.dtd">
<svg version="1.1" xmlns="http://www.w3.org/2000/svg" xmlns:xlink="http://www.w3.org/1999/xlink" x="0px" y="0px" viewBox="0 0 1000 1000" enable-background="new 0 0 1000 1000" xml:space="preserve">
<metadata> Svg Vector Icons : http://www.sfont.cn </metadata>
<g><path d="M673.4,332.3c11.2,0,22.4,0.9,33.4,2.2c-30-148.7-179.4-259.2-350-259.2C166.2,75.3,10,213.6,10,389.2c0,101.4,52,184.6,138.8,249.1l-34.7,111l121.3-64.7c43.4,9.1,78.2,18.5,121.5,18.5c10.9,0,21.7-0.6,32.4-1.5c-6.8-24.7-10.7-50.5-10.7-77.3C378.5,463.1,508.7,332.3,673.4,332.3z M486.9,232.2c26.1,0,43.4,18.3,43.4,46.1c0,27.7-17.3,46.2-43.4,46.2c-26,0-52.1-18.5-52.1-46.2C434.8,250.5,460.9,232.2,486.9,232.2z M244.2,324.5c-26,0-52.2-18.5-52.2-46.2c0-27.8,26.2-46.1,52.2-46.1c26,0,43.3,18.3,43.3,46.1C287.5,305.9,270.2,324.5,244.2,324.5z"/><path d="M990,619.9c0-147.6-138.8-267.8-294.6-267.8c-165,0-295,120.3-295,267.8c0,147.8,130,267.8,295,267.8c34.5,0,69.4-9.2,104.1-18.5l95.1,55.4l-26.1-92.3C938.1,776.8,990,703.1,990,619.9z M599.7,573.8c-17.3,0-34.7-18.3-34.7-36.9c0-18.4,17.4-36.9,34.7-36.9c26.2,0,43.4,18.5,43.4,36.9C643.1,555.5,626,573.8,599.7,573.8z M790.5,573.8c-17.2,0-34.5-18.3-34.5-36.9c0-18.4,17.3-36.9,34.5-36.9c26,0,43.4,18.5,43.4,36.9C833.9,555.5,816.5,573.8,790.5,573.8z"/></g>
</svg>