<?xml version="1.0" standalone="no"?> <!DOCTYPE svg PUBLIC "-//W3C//DTD SVG 1.1//EN" "http://www.w3.org/Graphics/SVG/1.1/DTD/svg11.dtd" > <svg xmlns="http://www.w3.org/2000/svg" xmlns:xlink="http://www.w3.org/1999/xlink" version="1.1" viewBox="0 0 2048 2048">  <g transform="matrix(1 0 0 -1 0 1638)">  <path fill="currentColor" d="M465 501l308 -209q-275 -403 -297 -431l-102 -132l-293 226q202 266 283 391l101 155v0zM452 602l-88 -125l-57 142l195 375h-351v338h524l94 246l429 -85l-67 -161h766v-338h-551v98h-540v-365h81v294h389v-226h526v-358h-118l-145 145l-176 -145h-87v-85l-99 -88 l99 -131l-2 -281q-1 -85 -46.5 -132.5t-157.5 -47.5h-382v403l143 2q41 0 48.5 6.5t7.5 29.5v324h-178zM1265 251l270 226l163.5 -178t275.5 -330l-266 -247l-118 152l-180 208l-145 169v0z" />  </g> </svg>
