<?xml version="1.0" standalone="no"?> <!DOCTYPE svg PUBLIC "-//W3C//DTD SVG 1.1//EN" "http://www.w3.org/Graphics/SVG/1.1/DTD/svg11.dtd" > <svg xmlns="http://www.w3.org/2000/svg" xmlns:xlink="http://www.w3.org/1999/xlink" version="1.1" viewBox="0 0 2048 2048">  <g transform="matrix(1 0 0 -1 0 1638)">  <path fill="currentColor" d="M192 -38l-134 390q133 38 249 81v564h-226v372h827v-371l-229 -1v-125q-78 -59 -166 -101l291 -439l91 71l77 -162l-297.5 -115t-482.5 -164zM972 1173q21 53 33.5 88.5t33 110t25.5 101.5l16 88l399 -81l-51 -199h518v-407h-133q-9 -71 -21 -157.5t-47.5 -212.5 t-56.5 -172l-54 -121q35 -33 98.5 -84.5t256.5 -131.5l-203 -361q-251 136 -335 198l-97 69q-131 -90 -262.5 -148.5t-345.5 -111.5l-138 381q141 33 257.5 78.5t211.5 110.5l-152 297l-101 -78l-210 321q41 23 57 34t68.5 52.5t60.5 51.5l37 41h135v243zM1236 808 q27 -90 42 -130.5t62 -119.5q22 44 32.5 72.5t25 93t17.5 84.5l10 68h-152z" />  </g> </svg>