<?xml version="1.0" standalone="no"?> <!DOCTYPE svg PUBLIC "-//W3C//DTD SVG 1.1//EN" "http://www.w3.org/Graphics/SVG/1.1/DTD/svg11.dtd" > <svg xmlns="http://www.w3.org/2000/svg" xmlns:xlink="http://www.w3.org/1999/xlink" version="1.1" viewBox="0 0 2048 2048">  <g transform="matrix(1 0 0 -1 0 1638)">  <path fill="currentColor" d="M1181 1578l300 -129l-34 -45h326l171 -177l-89 -191.5t-84 -146.5l-61 -86q48 -37 148 -90t158 -79l-109 -239v175h-992v-104l-65 130l188.5 116.5t125.5 88.5l-58 71l-80 -78l-265 213q67 65 113 116.5t144 197.5t111 168l52 89v0zM1335 1127q45 -69 59 -83l46 -51 q41 54 49 67l40 67h-194zM977 509h870v-804h-870v804zM1529 231h-249v-230h249v230zM881 1463l-1 -233q-65 -87 -77 -98l-128 -125l205 -189v-125l-121 -74l121 -223l1 -593h-779v1660h779zM419 1098h-95v-297h95v297zM665 1098h-94v-297h94v297zM419 467h-95v-297h95v297z M665 467h-94v-297h94v297z" />  </g> </svg>
